<?xml version="1.0" encoding="UTF-8"?>
<svg xmlns="http://www.w3.org/2000/svg" xmlns:xlink="http://www.w3.org/1999/xlink" width="40px" height="40px" viewBox="0 0 40 40" version="1.1">
<g id="surface1">
<path style=" stroke:none;fill-rule:nonzero;fill:rgb(0%,0%,0%);fill-opacity:1;" d="M 27.699219 0 C 27.789062 0 27.882812 0 27.980469 0 C 28.210938 2.820312 27.132812 4.929688 25.824219 6.453125 C 24.542969 7.972656 22.78125 9.441406 19.9375 9.21875 C 19.75 6.4375 20.828125 4.484375 22.136719 2.964844 C 23.347656 1.542969 25.570312 0.28125 27.699219 0 Z M 27.699219 0 "/>
<path style=" stroke:none;fill-rule:nonzero;fill:rgb(0%,0%,0%);fill-opacity:1;" d="M 36.304688 29.359375 C 36.304688 29.390625 36.304688 29.414062 36.304688 29.441406 C 35.507812 31.859375 34.367188 33.933594 32.976562 35.859375 C 31.707031 37.609375 30.148438 39.960938 27.371094 39.960938 C 24.96875 39.960938 23.375 38.414062 20.914062 38.375 C 18.3125 38.332031 16.878906 39.664062 14.5 40 C 14.226562 40 13.957031 40 13.6875 40 C 11.941406 39.746094 10.53125 38.363281 9.503906 37.117188 C 6.472656 33.429688 4.132812 28.671875 3.695312 22.578125 C 3.695312 21.980469 3.695312 21.386719 3.695312 20.789062 C 3.878906 16.429688 6 12.886719 8.8125 11.167969 C 10.300781 10.253906 12.34375 9.476562 14.617188 9.824219 C 15.59375 9.976562 16.589844 10.308594 17.460938 10.640625 C 18.289062 10.957031 19.324219 11.519531 20.304688 11.492188 C 20.96875 11.472656 21.628906 11.125 22.296875 10.882812 C 24.257812 10.171875 26.179688 9.363281 28.710938 9.742188 C 31.753906 10.203125 33.914062 11.554688 35.25 13.640625 C 32.675781 15.28125 30.640625 17.75 30.988281 21.96875 C 31.296875 25.800781 33.523438 28.039062 36.304688 29.359375 Z M 36.304688 29.359375 "/>
</g>
</svg>
